<?xml version="1.0" encoding="utf-8"?>
<!-- Generator: Adobe Illustrator 21.0.0, SVG Export Plug-In . SVG Version: 6.00 Build 0)  -->
<svg version="1.1" id="Layer_1" xmlns="http://www.w3.org/2000/svg" xmlns:xlink="http://www.w3.org/1999/xlink" x="0px" y="0px"
	 viewBox="0 0 234.5 261.6" style="enable-background:new 0 0 234.5 261.6;" xml:space="preserve">
<style type="text/css">
	.st0{fill:#CFD0D4;}
</style>
<g id="Layer_2">
	<g id="Layer_5">
		<path class="st0" d="M204.5,124.4c0-11.8-9.5-21.3-21.3-21.3c-2,0-3.1-0.1-6.1-0.1H57.5c8.2-17.5,23.6-30.6,42.2-35.7
			c3.8-1.1,7.8-1.8,11.7-2.1c1.9-0.2,3.9-0.3,5.9-0.3c2,0,3.9,0.1,5.9,0.3c4,0.3,7.9,1,11.7,2.1c8.1,2.2,15.7,6,22.4,11.1l-7,7h14.6
			v-0.3l0.3,0.3h27.5c-14.8-24.6-40.7-40.4-69.4-42.3c-1.9-0.1-3.9-0.2-5.9-0.2c-2,0-3.9,0.1-5.9,0.2C82.7,44.9,56.8,60.7,42,85.4
			c-7.3,12-11.6,25.6-12.5,39.6h175C204.5,124.8,204.5,124.6,204.5,124.4z"/>
		<path class="st0" d="M29.5,136.7c0.1,2,0.3,3.9,0.6,5.9c2.5,9.3,11,15.8,20.6,15.9c1.7,0,2.5,0.2,6.7,0.2h119.6
			c-8.2,17.5-23.6,30.6-42.2,35.7c-3.8,1.1-7.8,1.8-11.7,2.1c-1.9,0.2-3.9,0.3-5.9,0.3s-3.9-0.1-5.9-0.3c-4-0.3-7.9-1-11.7-2.1
			c-8-2.2-15.6-6-22.2-11l7.1-7.1H69.9v0.4l-0.4-0.4H42c14.8,24.6,40.7,40.4,69.4,42.3c1.9,0.1,3.9,0.2,5.9,0.2s3.9-0.1,5.9-0.2
			c28.7-1.9,54.6-17.7,69.4-42.3c7.3-12,11.5-25.6,12.4-39.6H29.5z"/>
		<path class="st0" d="M228.8,94.8c-2.3-7.1-5.2-13.9-8.8-20.4C197.2,32.8,151.5,9,104.2,14.3L100.4,0c-3.9,0.5-7.7,1.2-11.6,2
			l3.8,14.2c-1.9,0.4-3.8,0.9-5.7,1.4s-3.8,1.1-5.6,1.7L77.5,5.1c-3.8,1.2-7.5,2.5-11.1,4l3.8,14.3C19.2,45.7-9.1,100.9,2.6,155.5
			c0.4,1.9,0.9,3.8,1.4,5.7s1.1,3.8,1.7,5.6c2.3,7.1,5.2,13.9,8.8,20.4c3,5.4,6.4,10.6,10.1,15.5c25.1,32.3,65.1,49.2,105.7,44.7
			l3.8,14.3c3.9-0.5,7.7-1.2,11.6-2l-3.8-14.2c1.9-0.4,3.8-0.9,5.7-1.4s3.8-1.1,5.6-1.7l3.8,14.1c3.8-1.2,7.5-2.5,11.1-4l-3.8-14.3
			c37.4-16.4,63.6-51.1,69.2-91.5c0.8-6.1,1.2-12.3,1.1-18.5c-0.2-7.4-1-14.8-2.6-22c-0.4-1.9-0.9-3.8-1.4-5.7
			S229.4,96.7,228.8,94.8z M217.7,110c2.8,13.5,2.9,27.4,0.2,40.9c-6.4,32.1-27.8,59.2-57.5,73c-3.6,1.7-7.3,3.1-11,4.3
			c-1.9,0.6-3.7,1.2-5.6,1.7s-3.8,1-5.7,1.4C87,241.9,36.2,212.5,19.9,163c-0.6-1.9-1.2-3.7-1.7-5.6s-1-3.8-1.4-5.7
			c-2.8-13.5-2.9-27.4-0.2-40.9c6.4-32.1,27.8-59.2,57.5-73c3.6-1.7,7.3-3.1,11-4.3c1.8-0.6,3.7-1.2,5.6-1.7c1.9-0.5,3.8-1,5.7-1.4
			c51-10.6,101.9,18.7,118.2,68.3c0.6,1.8,1.2,3.7,1.7,5.6S217.3,108.1,217.7,110z"/>
	</g>
</g>
</svg>
